<svg width="37" height="37" viewBox="0 0 37 37" fill="none" xmlns="http://www.w3.org/2000/svg">
<path d="M8.94159 29.3149C15.7045 29.3149 22.4671 29.3149 29.23 29.3149C29.8168 29.3149 29.8168 28.4051 29.23 28.4051C22.4671 28.4051 15.7045 28.4051 8.94159 28.4051C8.35496 28.4051 8.35496 29.3149 8.94159 29.3149Z" fill="black"/>
<path d="M24.3584 28.1509C20.8639 28.1509 17.3695 28.1509 13.875 28.1509C14.0291 28.305 14.1834 28.4593 14.3375 28.6134C14.3375 23.1045 14.3375 17.5955 14.3375 12.0868C14.1834 12.2409 14.0291 12.3952 13.875 12.5493C17.3695 12.5493 20.8639 12.5493 24.3584 12.5493C24.2043 12.3952 24.05 12.2409 23.8959 12.0868C23.8959 17.5957 23.8959 23.1046 23.8959 28.6134C23.8959 29.2098 24.8209 29.2098 24.8209 28.6134C24.8209 23.1045 24.8209 17.5955 24.8209 12.0868C24.8209 11.8346 24.6106 11.6243 24.3584 11.6243C20.8639 11.6243 17.3695 11.6243 13.875 11.6243C13.6229 11.6243 13.4125 11.8346 13.4125 12.0868C13.4125 17.5957 13.4125 23.1046 13.4125 28.6134C13.4125 28.8655 13.6229 29.0759 13.875 29.0759C17.3695 29.0759 20.8639 29.0759 24.3584 29.0759C24.9548 29.0759 24.9548 28.1509 24.3584 28.1509Z" fill="black"/>
<path d="M22.3234 7.52339H16.0334V12.025H22.3234V7.52339Z" fill="#FFAA4D"/>
<path d="M22.3234 11.6088C20.2268 11.6088 18.13 11.6088 16.0334 11.6088C16.1722 11.7475 16.3109 11.8863 16.4497 12.025C16.4497 10.5245 16.4497 9.02393 16.4497 7.5234C16.3109 7.66215 16.1722 7.8009 16.0334 7.93965C18.13 7.93965 20.2268 7.93965 22.3234 7.93965C22.1847 7.8009 22.0459 7.66215 21.9072 7.5234C21.9072 9.02393 21.9072 10.5245 21.9072 12.025C21.9072 12.5619 22.7397 12.5619 22.7397 12.025C22.7397 10.5245 22.7397 9.02393 22.7397 7.5234C22.7397 7.2964 22.5504 7.10715 22.3234 7.10715C20.2268 7.10715 18.13 7.10715 16.0334 7.10715C15.8064 7.10715 15.6172 7.2964 15.6172 7.5234C15.6172 9.02393 15.6172 10.5245 15.6172 12.025C15.6172 12.252 15.8064 12.4413 16.0334 12.4413C18.13 12.4413 20.2268 12.4413 22.3234 12.4413C22.8603 12.4413 22.8603 11.6088 22.3234 11.6088Z" fill="black"/>
<path d="M21.8609 14.4916C21.8609 14.4916 21.7926 14.5939 21.6652 14.7649C21.5379 14.936 21.3531 15.1776 21.1203 15.4564C20.8904 15.738 20.611 16.0558 20.3076 16.3917C20.0024 16.726 19.6688 17.0748 19.3282 17.4163C18.9867 17.7569 18.6384 18.0908 18.3041 18.396C17.9681 18.6996 17.6505 18.9788 17.3687 19.2087C17.0899 19.4415 16.8481 19.6261 16.6768 19.7534C16.5057 19.8807 16.4032 19.9489 16.4032 19.9489C16.4032 19.9489 16.4713 19.8464 16.5987 19.6753C16.726 19.5042 16.9107 19.2624 17.1434 18.9834C17.3733 18.7017 17.6525 18.384 17.9561 18.048C18.2613 17.7138 18.5953 17.3656 18.9358 17.0239C19.2775 16.6833 19.6263 16.3499 19.9604 16.0445C20.2965 15.7411 20.6142 15.4617 20.8957 15.2318C21.1747 14.9991 21.4161 14.8142 21.5873 14.687C21.7586 14.5599 21.8609 14.4916 21.8609 14.4916Z" fill="black"/>
<path d="M21.8453 18.7312C21.8453 18.7312 21.7771 18.8336 21.6496 19.0045C21.5223 19.1756 21.3375 19.4172 21.1048 19.696C20.8748 19.9776 20.5955 20.2954 20.2921 20.6314C19.9868 20.9657 19.6533 21.3144 19.3127 21.6559C18.9712 21.9965 18.6228 22.3304 18.2885 22.6357C17.9526 22.9393 17.6349 23.2184 17.3532 23.4484C17.0744 23.6811 16.8326 23.8657 16.6613 23.993C16.4902 24.1203 16.3877 24.1886 16.3877 24.1886C16.3877 24.1886 16.4557 24.0861 16.5832 23.9149C16.7105 23.7438 16.8951 23.502 17.1278 23.223C17.3578 22.9413 17.637 22.6236 17.9406 22.2877C18.2458 21.9534 18.5797 21.6052 18.9203 21.2635C19.262 20.9229 19.6107 20.5896 19.9448 20.2841C20.281 19.9807 20.5986 19.7014 20.8802 19.4714C21.1592 19.2387 21.4006 19.0539 21.5717 18.9266C21.743 18.7995 21.8453 18.7312 21.8453 18.7312Z" fill="black"/>
<path d="M19.3171 7.15339C19.3171 6.12553 19.3171 5.09785 19.3171 4.06999C19.3171 3.8911 19.0396 3.8911 19.0396 4.06999C19.0396 5.09785 19.0396 6.12553 19.0396 7.15339C19.0396 7.33228 19.3171 7.33228 19.3171 7.15339Z" fill="#325992"/>
</svg>
