<svg width="200" height="200" viewBox="0 0 200 200" fill="none" xmlns="http://www.w3.org/2000/svg">
<path d="M148.491 55.871C167.532 73.5 174.719 99.977 167.035 124.785C160.434 146.099 142.354 162.322 121.032 168.041C98.967 173.959 75.145 167.074 58.849 151.367C41.706 134.843 35.527 109.838 41.583 87.028C44.789 74.954 51.807 64.301 60.915 55.869C65.656 51.48 58.568 44.425 53.844 48.798C34.918 66.319 26.5 91.557 30.238 116.953C33.46 138.841 47.498 158.202 66.218 169.562C85.597 181.322 110.207 183.129 131.32 175.242C152.125 167.47 168.094 150.635 175.815 129.967C186.374 101.702 177.433 69.051 155.56 48.801C150.839 44.426 143.75 51.481 148.491 55.871Z" fill="black"/>
<path d="M100.667 29C100.667 52.667 100.667 76.333 100.667 100C100.667 106.449 110.667 106.449 110.667 100C110.667 76.333 110.667 52.667 110.667 29C110.667 22.551 100.667 22.551 100.667 29Z" fill="#FFAA4D"/>
</svg>
