<svg width="200" height="190" viewBox="0 0 200 190" fill="none" xmlns="http://www.w3.org/2000/svg">
<path d="M171.395 110.163C171.395 104.499 171.395 98.834 171.395 93.17C171.395 92.317 170.789 91.43 169.927 91.241C165.684 90.315 161.441 89.389 157.198 88.462C155.264 88.04 153.329 87.618 151.395 87.195C152.796 87.501 150.689 82.969 150.304 82.01C149.389 79.734 148.24 77.577 147.021 75.453C147.021 76.126 147.021 76.799 147.021 77.472C150.35 71.862 153.679 66.252 157.009 60.642C157.455 59.89 157.347 58.825 156.696 58.218C152.553 54.355 148.411 50.492 144.268 46.629C143.646 46.049 142.595 45.797 141.844 46.316C136.659 49.904 131.475 53.492 126.29 57.081C126.963 57.081 127.636 57.081 128.309 57.081C126.426 56.043 124.522 55.112 122.547 54.261C121.741 53.914 116.893 51.461 117.3 53.326C116.927 51.618 116.555 49.911 116.182 48.203C115.185 43.637 114.189 39.071 113.192 34.505C113.004 33.642 112.117 33.037 111.263 33.037C105.599 33.037 99.934 33.037 94.27 33.037C93.417 33.037 92.53 33.643 92.341 34.505C91.41 38.77 90.479 43.036 89.548 47.301C89.124 49.245 88.699 51.19 88.275 53.134C88.585 51.713 84.305 53.729 83.301 54.126C81.092 55 78.991 56.097 76.921 57.255C77.594 57.255 78.267 57.255 78.94 57.255C73.517 53.775 68.094 50.296 62.671 46.816C61.918 46.333 60.863 46.513 60.247 47.129C56.242 51.134 52.236 55.14 48.231 59.145C47.615 59.761 47.435 60.816 47.918 61.569C51.388 66.977 54.858 72.385 58.328 77.793C58.328 77.12 58.328 76.447 58.328 75.774C57.234 77.711 56.255 79.669 55.361 81.706C55.026 82.47 52.497 87.553 54.329 87.153C52.63 87.524 50.932 87.895 49.233 88.265C44.691 89.257 40.148 90.248 35.606 91.24C34.743 91.428 34.138 92.315 34.138 93.169C34.138 98.833 34.138 104.498 34.138 110.162C34.138 111.015 34.744 111.902 35.606 112.091C39.832 113.013 44.057 113.936 48.283 114.858C50.209 115.278 52.136 115.699 54.062 116.119C52.634 115.807 54.684 120.216 55.073 121.202C55.958 123.445 57.073 125.578 58.25 127.678C58.25 127.005 58.25 126.332 58.25 125.659C54.806 131.026 51.362 136.394 47.918 141.761C47.435 142.514 47.615 143.569 48.231 144.185C52.236 148.19 56.242 152.196 60.247 156.201C60.863 156.817 61.918 156.997 62.671 156.514C68.023 153.08 73.376 149.645 78.728 146.211C78.055 146.211 77.382 146.211 76.709 146.211C78.677 147.324 80.666 148.319 82.737 149.226C83.487 149.554 88.693 152.111 88.293 150.279C88.66 151.962 89.028 153.644 89.395 155.327C90.377 159.827 91.359 164.326 92.342 168.826C92.53 169.689 93.417 170.294 94.271 170.294C99.935 170.294 105.6 170.294 111.264 170.294C112.117 170.294 113.004 169.688 113.193 168.826C114.111 164.623 115.028 160.419 115.946 156.216C116.364 154.3 116.783 152.384 117.201 150.467C116.897 151.859 121.761 149.653 122.674 149.285C125.041 148.329 127.278 147.12 129.479 145.834C128.806 145.834 128.133 145.834 127.46 145.834C133.132 149.227 138.803 152.62 144.475 156.013C145.231 156.465 146.286 156.344 146.899 155.7C150.839 151.563 154.779 147.425 158.718 143.288C159.309 142.668 159.539 141.616 159.031 140.864C155.34 135.406 151.649 129.949 147.957 124.491C147.957 125.164 147.957 125.837 147.957 126.51C148.837 124.831 149.695 123.141 150.396 121.376C150.775 120.421 152.888 115.81 151.474 116.119C153.4 115.699 155.327 115.278 157.253 114.858C161.479 113.936 165.704 113.013 169.93 112.091C172.45 111.541 171.381 107.685 168.867 108.234C162.63 109.595 156.393 110.957 150.157 112.318C149.485 112.465 148.939 113.071 148.76 113.715C147.712 117.48 146.32 121.028 144.504 124.492C144.185 125.101 144.097 125.909 144.504 126.511C148.195 131.969 151.886 137.426 155.578 142.884C155.682 142.076 155.786 141.268 155.891 140.46C151.951 144.597 148.011 148.735 144.072 152.872C144.88 152.768 145.688 152.664 146.496 152.559C140.824 149.166 135.153 145.773 129.481 142.38C128.869 142.014 128.075 142.022 127.462 142.38C123.442 144.729 119.281 146.493 114.799 147.754C114.155 147.935 113.549 148.478 113.402 149.151C112.048 155.355 110.694 161.559 109.339 167.763C109.982 167.274 110.625 166.784 111.268 166.295C105.604 166.295 99.939 166.295 94.275 166.295C94.918 166.784 95.561 167.274 96.204 167.763C94.85 161.559 93.496 155.355 92.141 149.151C91.994 148.478 91.388 147.935 90.744 147.754C86.51 146.566 82.56 144.922 78.733 142.757C78.128 142.415 77.316 142.371 76.714 142.757C71.362 146.191 66.009 149.626 60.657 153.06C61.465 153.164 62.273 153.268 63.081 153.373C59.076 149.368 55.07 145.362 51.065 141.357C51.169 142.165 51.273 142.973 51.378 143.781C54.822 138.414 58.266 133.046 61.71 127.679C62.097 127.076 62.05 126.267 61.71 125.66C59.575 121.851 57.953 117.923 56.783 113.715C56.604 113.071 56.058 112.465 55.386 112.318C49.149 110.957 42.912 109.595 36.676 108.234C37.165 108.877 37.655 109.52 38.144 110.163C38.144 104.499 38.144 98.834 38.144 93.17C37.655 93.813 37.165 94.456 36.676 95.099C42.939 93.732 49.201 92.365 55.464 90.998C56.138 90.851 56.678 90.245 56.861 89.601C58.042 85.443 59.663 81.559 61.788 77.795C62.13 77.19 62.174 76.378 61.788 75.776C58.318 70.368 54.848 64.96 51.378 59.552C51.274 60.36 51.17 61.168 51.065 61.976C55.07 57.971 59.076 53.965 63.081 49.96C62.273 50.064 61.465 50.168 60.657 50.273C66.08 53.753 71.503 57.232 76.926 60.712C77.53 61.099 78.337 61.052 78.945 60.712C82.691 58.616 86.553 57.017 90.685 55.854C91.329 55.673 91.935 55.13 92.082 54.457C93.456 48.161 94.83 41.866 96.205 35.57C95.562 36.059 94.919 36.549 94.276 37.038C99.94 37.038 105.605 37.038 111.269 37.038C110.626 36.549 109.983 36.059 109.34 35.57C110.714 41.866 112.088 48.161 113.463 54.457C113.61 55.13 114.216 55.673 114.86 55.854C118.877 56.983 122.641 58.524 126.295 60.537C126.889 60.864 127.727 60.943 128.314 60.537C133.499 56.949 138.683 53.361 143.868 49.772C143.06 49.668 142.252 49.564 141.444 49.459C145.587 53.322 149.729 57.185 153.872 61.048C153.768 60.24 153.664 59.432 153.559 58.624C150.23 64.234 146.901 69.844 143.571 75.454C143.204 76.072 143.216 76.854 143.571 77.473C145.786 81.332 147.466 85.32 148.683 89.6C148.866 90.244 149.405 90.85 150.08 90.997C156.343 92.364 162.605 93.731 168.868 95.098C168.379 94.455 167.889 93.812 167.4 93.169C167.4 98.833 167.4 104.498 167.4 110.162C167.395 112.743 171.395 112.743 171.395 110.163Z" fill="black"/>
<path d="M102.767 130.32C118.556 130.32 131.355 117.521 131.355 101.732C131.355 85.9433 118.556 73.144 102.767 73.144C86.9783 73.144 74.179 85.9433 74.179 101.732C74.179 117.521 86.9783 130.32 102.767 130.32Z" fill="#FFAA4D" stroke="black" stroke-width="4" stroke-miterlimit="10"/>
</svg>
