<svg width="182" height="200" viewBox="0 0 182 200" fill="none" xmlns="http://www.w3.org/2000/svg">
<path d="M101.173 84.649C118.745 84.649 132.99 70.404 132.99 52.832C132.99 35.26 118.745 21.015 101.173 21.015C83.601 21.015 69.356 35.26 69.356 52.832C69.356 70.404 83.601 84.649 101.173 84.649Z" fill="#FFAA4D" stroke="black" stroke-width="4.5305" stroke-miterlimit="10"/>
<path d="M38.367 169.5C39.37 135.386 66.449 106.914 101 106.546C135.546 106.178 162.645 135.943 163.632 169.5C163.722 172.546 168.457 172.555 168.367 169.5C167.288 132.808 138.166 102.207 101 101.811C63.838 101.415 34.693 133.406 33.632 169.5C33.542 172.555 38.277 172.547 38.367 169.5Z" fill="black"/>
</svg>
