<svg width="183" height="154" viewBox="0 0 183 154" fill="none" xmlns="http://www.w3.org/2000/svg">
<g clip-path="url(#clip0_22_1129)">
<path d="M151.92 60.45C159.702 60.45 166.01 54.1417 166.01 46.36C166.01 38.5783 159.702 32.27 151.92 32.27C144.138 32.27 137.83 38.5783 137.83 46.36C137.83 54.1417 144.138 60.45 151.92 60.45Z" fill="#FFAA4D" stroke="black" stroke-width="4" stroke-miterlimit="10"/>
<path d="M124.1 98C124.54 82.89 136.54 70.28 151.84 70.11C167.14 69.94 179.15 83.11 179.59 98C179.59 99.35 181.73 99.36 181.69 98C181.21 81.75 168.31 68.19 151.84 68C135.37 67.81 122.47 82 122 98C122 99.36 124.06 99.35 124.1 98Z" fill="black" stroke="black" stroke-width="2" stroke-miterlimit="10"/>
<path d="M67.54 65.9C85.1137 65.9 99.36 51.6537 99.36 34.08C99.36 16.5063 85.1137 2.26 67.54 2.26C49.9663 2.26 35.72 16.5063 35.72 34.08C35.72 51.6537 49.9663 65.9 67.54 65.9Z" fill="#FFAA4D" stroke="black" stroke-width="4.53" stroke-miterlimit="10"/>
<path d="M4.74001 150.75C5.74001 116.64 32.82 88.16 67.37 87.8C101.92 87.44 129.01 117.19 130 150.8C130.09 153.85 134.83 153.86 134.74 150.8C133.66 114.11 104.54 83.51 67.37 83.11C30.2 82.71 1.06001 114.66 1.43172e-05 150.75C-0.0899857 153.81 4.65001 153.8 4.74001 150.75Z" fill="black"/>
</g>
<defs>
<clipPath id="clip0_22_1129">
<rect width="182.69" height="153.04" fill="white"/>
</clipPath>
</defs>
</svg>
