<svg width="40" height="40" viewBox="0 0 40 40" fill="none" xmlns="http://www.w3.org/2000/svg">
<rect width="40" height="40" rx="20" fill="#FFC280"/>
<path d="M18.4006 23.152V22.9858C18.4048 22.2145 18.4773 21.6009 18.6179 21.1449C18.7628 20.6889 18.9673 20.3224 19.2315 20.0455C19.4957 19.7642 19.8175 19.5064 20.1967 19.272C20.4567 19.1101 20.6889 18.9332 20.8935 18.7415C21.1023 18.5455 21.2663 18.3281 21.3857 18.0895C21.505 17.8466 21.5646 17.576 21.5646 17.2777C21.5646 16.9411 21.4858 16.6491 21.3281 16.402C21.1705 16.1548 20.9574 15.9631 20.6889 15.8267C20.4247 15.6903 20.1286 15.6222 19.8004 15.6222C19.4979 15.6222 19.2102 15.6882 18.9375 15.8203C18.669 15.9482 18.4453 16.1442 18.2663 16.4084C18.0916 16.6683 17.9936 16.9986 17.9723 17.3991H15.6967C15.718 16.5895 15.9141 15.9119 16.2848 15.3665C16.6598 14.821 17.1541 14.4119 17.7678 14.1392C18.3857 13.8665 19.0675 13.7301 19.8132 13.7301C20.6271 13.7301 21.343 13.8729 21.9609 14.1584C22.5831 14.4439 23.0668 14.8509 23.4119 15.3793C23.7614 15.9034 23.9361 16.5256 23.9361 17.2457C23.9361 17.7315 23.8572 18.1662 23.6996 18.5497C23.5462 18.9332 23.3267 19.2741 23.0412 19.5724C22.7557 19.8707 22.4169 20.1371 22.0249 20.3714C21.6797 20.5845 21.3963 20.8061 21.1747 21.0362C20.9574 21.2663 20.7955 21.5369 20.6889 21.848C20.5866 22.1548 20.5334 22.5341 20.5291 22.9858V23.152H18.4006ZM19.5128 27.1406C19.1293 27.1406 18.799 27.0043 18.522 26.7315C18.245 26.4588 18.1065 26.1264 18.1065 25.7344C18.1065 25.3509 18.245 25.0227 18.522 24.75C18.799 24.4773 19.1293 24.3409 19.5128 24.3409C19.892 24.3409 20.2202 24.4773 20.4972 24.75C20.7784 25.0227 20.919 25.3509 20.919 25.7344C20.919 25.9943 20.853 26.2308 20.7209 26.4439C20.593 26.657 20.4226 26.8274 20.2095 26.9553C20.0007 27.0788 19.7685 27.1406 19.5128 27.1406Z" fill="white"/>
</svg>
